Coordinates
version=1
nRows=12
nColumns=33
inDegrees=yes

Units are S.I. units (second, meters, Newtons, ...)
Angles are in degrees.

endheader
time	ground_thorax_rot_x	ground_thorax_rot_y	ground_thorax_rot_z	ground_thorax_tx	ground_thorax_ty	ground_thorax_tz	clav_prot_r	clav_elev_r	scapula_abduction_r	scapula_elevation_r	scapula_upward_rot_r	scapula_winging_r	shoulder_elv_r	plane_of_elev_r	axial_rot_r	elbow_flexion_r	pro_sup_r	wrist_flex_r	wrist_dev_r	clav_prot_l	clav_elev_l	scapula_abduction_l	scapula_elevation_l	scapula_upward_rot_l	scapula_winging_l	shoulder_elv_l	plane_of_elev_l	axial_rot_l	elbow_flexion_l	pro_sup_l	wrist_flex_l	wrist_dev_l
      4.23000000	    -24.78232148	    -31.81402062	     46.62003879	     47.49454759	    777.42906353	    -45.84727521	     30.02405954	    -45.00000000	     40.07108034	    -45.00000000	    -45.00000000	  -1543.46098914	  -2085.09848575	     19.98319434	   -141.01130680	    360.91468206	    173.27479363	     13.05895908	     11.80760175	     -0.70623909	     31.11848351	    -28.47157778	    -45.00000000	    -45.00000000	  -2795.17052510	   1350.08366401	    134.34424980	   -112.07784241	   2151.31745224	   -310.75623033	     10.24026113	    -15.97567586
      4.24000000	    -25.13484343	    -31.57731819	     46.18700522	     45.52016329	    777.41628961	    -45.86473517	     29.99549735	    -45.00000000	     39.95100141	    -45.00000000	    -45.00000000	  -1543.54270279	  -2085.14019947	     20.06425436	   -140.90933053	    360.98629768	    173.35046276	     12.99636429	     11.88701538	     -0.81225171	     31.13314293	    -28.57696287	    -45.00000000	    -45.00000000	  -2795.02444331	   1350.14893700	    134.22028185	   -112.10657186	   2151.27594520	   -310.68441476	     10.32256645	    -16.07075022
      4.25000000	    -25.35045167	    -31.43782046	     45.83259186	     43.54208855	    777.39820467	    -45.85413972	     29.97353740	    -45.00000000	     39.93148520	    -45.00000000	    -45.00000000	  -1543.57089575	  -2085.09805984	     20.05193326	   -140.86513712	    360.92029458	    173.38712683	     13.02093885	     11.89515989	     -0.73011784	     31.14891676	    -28.44009135	    -45.00000000	    -45.00000000	  -2795.12468158	   1350.19541007	    134.26570477	   -112.26261304	   2151.28385873	   -310.61344667	     10.26364451	    -16.03021000
      4.26000000	    -25.62887709	    -31.18884961	     45.40885949	     41.55848600	    777.37580756	    -45.81534433	     29.98241782	    -45.00000000	     39.84561067	    -45.00000000	    -45.00000000	  -1543.72792730	  -2085.07282539	     20.17417039	   -140.72058887	    360.91262854	    173.41223061	     12.99011883	     11.97490266	     -0.87740940	     31.15804781	    -28.50816515	    -45.00000000	    -45.00000000	  -2794.95323713	   1350.17197711	    134.08713683	   -112.26920297	   2151.23250028	   -310.54729053	     10.36784694	    -16.14521365
      4.27000000	    -25.69419245	    -31.11243768	     45.27540498	     39.55579502	    777.35984279	    -45.75805572	     29.91641937	    -45.00000000	     39.87152642	    -45.00000000	    -45.00000000	  -1543.69094943	  -2084.95440058	     19.97720932	   -140.76377857	    360.85591490	    173.36351297	     13.04850882	     11.90010408	     -0.68683899	     31.17315746	    -28.38956662	    -45.00000000	    -45.00000000	  -2795.16514923	   1350.13566854	    134.36529316	   -112.37410039	   2151.26788164	   -310.48700643	     10.23353098	    -16.04255044
      4.28000000	    -25.82464906	    -31.01966469	     45.12165484	     37.52606559	    777.35937224	    -45.68876725	     30.03315901	    -45.00000000	     39.89256281	    -45.00000000	    -45.00000000	  -1543.83642534	  -2084.95124892	     19.93599842	   -140.64898223	    360.85505543	    173.30019756	     13.03615760	     11.93082342	     -0.80106014	     31.17545256	    -28.44458694	    -45.00000000	    -45.00000000	  -2795.01827938	   1350.04729547	    134.41429706	   -112.46449576	   2151.25832901	   -310.43057299	     10.27819437	    -16.10438978
      4.29000000	    -26.13305404	    -30.84316636	     44.69090235	     35.46851314	    777.38090993	    -45.61085489	     29.99239655	    -45.00000000	     39.76027479	    -45.00000000	    -45.00000000	  -1543.90703564	  -2084.96732194	     20.03454522	   -140.48111815	    360.87200687	    173.24484167	     12.98206694	     12.02027850	     -0.88547785	     31.17447449	    -28.52145846	    -45.00000000	    -45.00000000	  -2794.86630410	   1350.07492357	    134.34394840	   -112.48357387	   2151.17212072	   -310.38005601	     10.38960937	    -16.20899656
      4.30000000	    -26.30294525	    -30.65681204	     44.41226652	     33.38252560	    777.42986058	    -45.52607191	     29.98778535	    -45.00000000	     39.74505490	    -45.00000000	    -45.00000000	  -1544.00922865	  -2084.91250840	     19.99232220	   -140.43978297	    360.83625742	    173.16434977	     12.98934201	     12.04210513	     -0.84903524	     31.19404576	    -28.43235449	    -45.00000000	    -45.00000000	  -2794.92795313	   1350.07441405	    134.36071704	   -112.55735518	   2151.20400269	   -310.34940978	     10.35767079	    -16.19331741
      4.31000000	    -26.58876344	    -30.47455982	     43.98083512	     31.27864740	    777.51000568	    -45.43555061	     29.99054736	    -45.00000000	     39.66154490	    -45.00000000	    -45.00000000	  -1544.05596438	  -2084.95633214	     20.04374509	   -140.31465581	    360.85607109	    173.11123843	     12.95595632	     12.11457832	     -0.93742614	     31.20456582	    -28.45360671	    -45.00000000	    -45.00000000	  -2794.83923463	   1350.09922026	    134.27028899	   -112.58318682	   2151.12234544	   -310.32436044	     10.44488368	    -16.25452534
      4.32000000	    -26.77966988	    -30.26393581	     43.61602087	     29.15027152	    777.62519399	    -45.33957229	     29.93161615	    -45.00000000	     39.64328838	    -45.00000000	    -45.00000000	  -1544.17631049	  -2084.89233998	     20.05444855	   -140.26501080	    360.78435337	    173.05811703	     12.98077656	     12.15697604	     -0.87841950	     31.23279519	    -28.34031248	    -45.00000000	    -45.00000000	  -2794.94414280	   1350.08789354	    134.23618338	   -112.61435487	   2151.11725956	   -310.32080384	     10.42822954	    -16.22649515
      4.33000000	    -26.97133287	    -30.09700305	     43.32921930	     27.00790428	    777.77798974	    -45.23878657	     29.96502422	    -45.00000000	     39.58220583	    -45.00000000	    -45.00000000	  -1544.25538316	  -2084.84883656	     20.03941640	   -140.27755427	    360.78414868	    173.00624383	     12.98218971	     12.18125962	     -0.98600873	     31.20977770	    -28.46873860	    -45.00000000	    -45.00000000	  -2794.77514163	   1350.01175109	    134.21801518	   -112.53341100	   2151.05138950	   -310.33847046	     10.55315953	    -16.33495245
      4.34000000	    -27.11640163	    -29.97279094	     43.08717547	     24.85205253	    777.97160785	    -45.13338555	     29.94392542	    -45.00000000	     39.59338328	    -45.00000000	    -45.00000000	  -1544.33683620	  -2084.82329484	     19.98896137	   -140.29726322	    360.75743431	    172.96057158	     13.00011920	     12.21447680	     -0.89551626	     31.25690117	    -28.33824061	    -45.00000000	    -45.00000000	  -2794.91144968	   1350.04325619	    134.31367574	   -112.59550557	   2151.06228425	   -310.37527305	     10.49545824	    -16.25427000
